<svg width="18" height="18" viewBox="0 0 18 18" fill="none" xmlns="http://www.w3.org/2000/svg">
<path fill-rule="evenodd" clip-rule="evenodd" d="M15.75 15C15.75 15.825 15.075 16.5 14.25 16.5H3.75C2.9175 16.5 2.25 15.825 2.25 15L2.2575 4.5C2.2575 3.675 2.9175 3 3.75 3H4.5V1.5H6V3H12V1.5H13.5V3H14.25C15.075 3 15.75 3.675 15.75 4.5V15ZM14.25 6H3.75V4.5H14.25V6ZM14.25 15V7.5H3.75V15H14.25ZM8.40533 13.7035L12.3107 9.79816L11.25 8.7375L8.40533 11.5822L7.06066 10.2375L6 11.2982L8.40533 13.7035Z" fill="black" fill-opacity="0.54"/>
</svg>
