<svg width="18" height="17" viewBox="0 0 18 17" fill="none" xmlns="http://www.w3.org/2000/svg">
<path fill-rule="evenodd" clip-rule="evenodd" d="M12.0418 12.5444C11.9615 12.4589 11.8495 12.4105 11.7322 12.4105C11.615 12.4105 11.5029 12.4589 11.4226 12.5444L8.99984 14.6756L6.57704 12.5444C6.49675 12.4589 6.3847 12.4105 6.26744 12.4105C6.15018 12.4105 6.03813 12.4589 5.95784 12.5444C5.59784 12.8432 4.57544 13.7468 4.57544 13.7468C4.57544 13.7468 5.34224 15.086 5.79224 15.3848C6.24224 15.6836 6.27824 16.0004 7.23224 16.3172C8.18624 16.634 8.40224 16.634 8.61464 16.7852C8.71672 16.8595 8.81411 16.9401 8.90624 17.0264L8.92424 17.0912L8.99984 17.1848C9.54596 16.811 10.1423 16.5165 10.771 16.31C11.7214 15.9932 11.761 15.6764 12.211 15.3776C12.661 15.0788 13.4278 13.7396 13.4278 13.7396C13.4278 13.7396 12.3946 12.8432 12.0418 12.5444Z" fill="white"/>
<path fill-rule="evenodd" clip-rule="evenodd" d="M11.7432 13.7108C11.7432 12.746 11.6028 11.0792 11.6028 11.0792L9.00004 11.63L6.39724 11.072C6.39724 11.072 6.25684 12.7388 6.25684 13.7036C6.25684 14.6684 7.08124 16.4036 8.99644 16.4072V16.4072C10.9188 16.4108 11.7432 14.6756 11.7432 13.7108Z" fill="#E6E6E6"/>
<path fill-rule="evenodd" clip-rule="evenodd" d="M14.4323 14.2436C14.4323 14.2436 13.1975 14.5424 12.5531 15.2336C11.9087 15.9248 10.6775 16.3748 10.0799 16.562C9.67911 16.6872 9.3105 16.8985 8.99995 17.1812C8.69464 16.9008 8.33239 16.6896 7.93795 16.562C7.32235 16.3748 6.09475 15.9248 5.44675 15.2336C4.79875 14.5424 3.56755 14.2436 3.56755 14.2436L-0.172852 15.7772V20.1728H18.1871V15.7772L14.4323 14.2436Z" fill="#9E9E9E"/>
<path fill-rule="evenodd" clip-rule="evenodd" d="M5.03984 14.0204C5.18265 13.7218 5.37772 13.4511 5.61584 13.2212C5.834 13.0611 6.0625 12.9156 6.29984 12.7856L6.33224 12.1988L5.95064 12.2564L4.75904 12.7892L4.58984 13.3616L5.03984 14.0204Z" fill="#9E9E9E"/>
<path fill-rule="evenodd" clip-rule="evenodd" d="M12.9599 14.0204C12.8171 13.7218 12.622 13.4511 12.3839 13.2212C12.1657 13.0611 11.9372 12.9156 11.6999 12.7856L11.6675 12.1988L12.0491 12.2564L13.2407 12.7892L13.4099 13.3616L12.9599 14.0204Z" fill="#9E9E9E"/>
<path fill-rule="evenodd" clip-rule="evenodd" d="M9.00002 17.228C9.00002 17.228 9.12602 16.7924 7.78322 16.346C6.81445 16.0836 5.99743 15.4321 5.52602 14.546C5.13362 13.8584 5.06522 13.3832 4.89602 13.1744C4.72682 12.9656 4.77002 12.8144 5.21642 12.656C5.66282 12.4976 6.31442 12.206 6.31442 12.206V11.9936C6.05964 12.1502 5.78471 12.2713 5.49722 12.3536C5.11982 12.4354 4.77449 12.6256 4.50362 12.9008L4.20842 13.304C4.09509 13.2983 3.9857 13.3463 3.91322 13.4336C3.80202 13.5868 3.72582 13.7625 3.69002 13.9484C3.69002 14.0348 3.46682 14.0204 3.36962 14.078C3.27242 14.1356 3.17162 14.384 3.36962 14.456C4.08227 14.7659 4.76241 15.1457 5.40002 15.59C6.12998 16.1407 6.97996 16.5108 7.88042 16.67C8.77682 16.8068 9.00002 17.228 9.00002 17.228Z" fill="#C7C7C7"/>
<path fill-rule="evenodd" clip-rule="evenodd" d="M8.99999 17.228C8.99999 17.228 8.86679 16.7924 10.2096 16.346C11.1784 16.0836 11.9954 15.4321 12.4668 14.546C12.8592 13.8584 12.9276 13.3832 13.0968 13.1744C13.266 12.9656 13.2228 12.8144 12.7764 12.656C12.33 12.4976 11.6964 12.206 11.6964 12.206V11.9936C11.9512 12.1502 12.2261 12.2713 12.5136 12.3536C12.891 12.4354 13.2363 12.6256 13.5072 12.9008C13.662 13.1096 13.9968 13.2932 14.0976 13.4336C14.2588 13.6645 14.4408 13.8801 14.6412 14.078C14.742 14.132 14.8392 14.384 14.6412 14.456C13.9248 14.7652 13.241 15.1451 12.6 15.59C11.87 16.1407 11.02 16.5108 10.1196 16.67C9.22319 16.8068 8.99999 17.228 8.99999 17.228Z" fill="#C7C7C7"/>
<path fill-rule="evenodd" clip-rule="evenodd" d="M13.0751 7.00759C12.9631 6.99135 12.8497 7.02564 12.7655 7.10119C12.7499 6.81821 12.7753 6.53447 12.8411 6.25879C12.9599 5.69719 12.6647 3.70999 12.6647 3.70999L8.99987 1.97119L5.34227 3.70999C5.34227 3.70999 5.05427 5.69719 5.16587 6.25879C5.23162 6.53447 5.25709 6.81821 5.24147 7.10119C5.1597 7.02388 5.04649 6.98925 4.93547 7.00759C4.78787 7.05799 4.66907 7.19119 4.80227 7.45039C4.92986 7.76364 4.99586 8.09855 4.99667 8.43679C4.97843 8.79649 5.08247 9.15176 5.29187 9.44479C5.52947 9.67879 5.65187 9.69319 5.65187 9.69319C5.68443 10.2423 5.829 10.7789 6.07667 11.27C6.50386 11.8503 6.9861 12.388 7.51667 12.8756C7.88997 13.3024 8.43294 13.5423 8.99987 13.5308V13.5308C9.57305 13.539 10.1203 13.2924 10.4939 12.8576C11.0245 12.37 11.5067 11.8323 11.9339 11.252C12.1873 10.7685 12.3381 10.2378 12.3767 9.69319C12.3767 9.69319 12.4811 9.69319 12.7367 9.44479C12.9476 9.15253 13.0519 8.79669 13.0319 8.43679C13.0339 8.09833 13.1011 7.76343 13.2299 7.45039C13.3415 7.19119 13.2191 7.05799 13.0751 7.00759Z" fill="white"/>
<path fill-rule="evenodd" clip-rule="evenodd" d="M5.43235 8.44401C5.43235 8.44401 5.43235 7.64481 5.43235 6.93201C5.43235 6.21921 5.27395 5.45961 5.51155 5.05281C5.74915 4.64601 5.99035 5.08161 6.56635 4.54881C7.14235 4.01601 7.36555 3.73881 7.72915 3.72441C8.09275 3.71001 8.83435 3.87921 9.52915 3.62721C10.224 3.37521 10.6632 3.10881 10.9296 3.22041C11.196 3.33201 11.0016 3.89001 11.4912 4.17081C11.9808 4.45161 12.3048 4.35441 12.33 4.99881C12.3552 5.64321 12.3588 6.73401 12.402 7.15881C12.4452 7.58361 12.4848 8.23881 12.4848 8.23881C12.6559 7.96936 12.7971 7.68207 12.906 7.38201C12.9744 7.09041 13.2876 7.02201 13.266 6.78081C13.2444 6.53961 13.374 6.55761 13.4316 6.27681C13.4483 5.83198 13.4291 5.38653 13.374 4.94481C13.3452 4.37241 13.4316 3.57321 13.1796 3.24921C12.9276 2.92521 12.3804 2.52921 12.2976 2.32401C12.166 2.0921 11.9712 1.90233 11.736 1.77681C11.5956 1.73361 11.5956 1.03521 10.9368 0.837209C10.278 0.639209 10.0548 0.837209 10.0548 0.837209C9.59883 0.570378 9.06407 0.471066 8.54275 0.556409C8.23373 0.610519 7.94088 0.733566 7.68595 0.916409C7.47803 0.93579 7.27971 1.01312 7.11355 1.13961C6.92995 1.31961 6.81835 1.56081 6.60955 1.65801C6.40075 1.75521 5.99035 1.50321 5.75275 1.75521C5.59062 1.94902 5.46829 2.17288 5.39275 2.41401C5.20981 2.32431 4.99044 2.35729 4.84195 2.49681C4.45862 2.859 4.30394 3.40176 4.43875 3.91161C4.59136 4.24975 4.64383 4.62456 4.58995 4.99161C4.5852 5.40952 4.63727 5.82613 4.74475 6.23001C4.80235 6.48201 4.77355 7.01481 4.91395 7.14081C5.06322 7.28152 5.16191 7.46752 5.19475 7.67001C5.21995 7.86081 5.12275 7.95801 5.22715 8.15601C5.28505 8.25907 5.35385 8.35563 5.43235 8.44401Z" fill="#757575"/>
</svg>
